<svg width="17" height="16" viewBox="0 0 17 16" fill="none" xmlns="http://www.w3.org/2000/svg">
<g clip-path="url(#clip0_1_223)">
<path fill-rule="evenodd" clip-rule="evenodd" d="M15.3928 14C15.3928 14 16.3714 14 16.3714 13C16.3714 12 15.3928 9 11.4785 9C7.56423 9 6.58566 12 6.58566 13C6.58566 14 7.56423 14 7.56423 14H15.3928ZM7.58576 13H15.3713C15.3759 12.9995 15.3804 12.9988 15.385 12.998L15.3928 12.996C15.3908 12.732 15.2294 11.966 14.6491 11.276C14.1089 10.629 13.1597 10 11.4785 10C9.79831 10 8.8491 10.63 8.30795 11.276C7.72765 11.966 7.56521 12.733 7.56423 12.996C7.5714 12.9974 7.57857 12.9987 7.58576 13ZM11.4785 7C11.9976 7 12.4954 6.78929 12.8624 6.41421C13.2295 6.03914 13.4357 5.53043 13.4357 5C13.4357 4.46957 13.2295 3.96086 12.8624 3.58579C12.4954 3.21071 11.9976 3 11.4785 3C10.9595 3 10.4616 3.21071 10.0946 3.58579C9.72758 3.96086 9.52138 4.46957 9.52138 5C9.52138 5.53043 9.72758 6.03914 10.0946 6.41421C10.4616 6.78929 10.9595 7 11.4785 7ZM14.4142 5C14.4142 5.39397 14.3383 5.78407 14.1908 6.14805C14.0432 6.51203 13.827 6.84274 13.5544 7.12132C13.2818 7.3999 12.9581 7.62087 12.602 7.77164C12.2458 7.9224 11.864 8 11.4785 8C11.093 8 10.7112 7.9224 10.3551 7.77164C9.99889 7.62087 9.67526 7.3999 9.40266 7.12132C9.13005 6.84274 8.91381 6.51203 8.76627 6.14805C8.61874 5.78407 8.5428 5.39397 8.5428 5C8.5428 4.20435 8.8521 3.44129 9.40266 2.87868C9.95321 2.31607 10.6999 2 11.4785 2C12.2571 2 13.0038 2.31607 13.5544 2.87868C14.1049 3.44129 14.4142 4.20435 14.4142 5ZM7.5016 9.28C7.11016 9.15404 6.70665 9.07123 6.29796 9.033C6.06832 9.01068 5.83777 8.99967 5.60709 9C1.6928 9 0.714233 12 0.714233 13C0.714233 13.667 1.0401 14 1.6928 14H5.81846C5.67339 13.6878 5.60105 13.3455 5.60709 13C5.60709 11.99 5.97601 10.958 6.67373 10.096C6.91153 9.802 7.18846 9.527 7.5016 9.28ZM5.5288 10C3.89655 10.02 2.96984 10.64 2.43652 11.276C1.85231 11.97 1.6928 12.739 1.6928 13H4.62852C4.62852 11.955 4.9446 10.914 5.5288 10ZM2.18209 5.5C2.18209 4.70435 2.49139 3.94129 3.04194 3.37868C3.59249 2.81607 4.33921 2.5 5.1178 2.5C5.8964 2.5 6.64312 2.81607 7.19367 3.37868C7.74422 3.94129 8.05352 4.70435 8.05352 5.5C8.05352 6.29565 7.74422 7.05871 7.19367 7.62132C6.64312 8.18393 5.8964 8.5 5.1178 8.5C4.33921 8.5 3.59249 8.18393 3.04194 7.62132C2.49139 7.05871 2.18209 6.29565 2.18209 5.5ZM5.1178 3.5C4.59874 3.5 4.10093 3.71071 3.7339 4.08579C3.36686 4.46086 3.16066 4.96957 3.16066 5.5C3.16066 6.03043 3.36686 6.53914 3.7339 6.91421C4.10093 7.28929 4.59874 7.5 5.1178 7.5C5.63687 7.5 6.13468 7.28929 6.50171 6.91421C6.86875 6.53914 7.07495 6.03043 7.07495 5.5C7.07495 4.96957 6.86875 4.46086 6.50171 4.08579C6.13468 3.71071 5.63687 3.5 5.1178 3.5Z" fill="#6C757D"/>
</g>
<defs>
<clipPath id="clip0_1_223">
<rect width="15.6571" height="16" fill="white" transform="translate(0.714233)"/>
</clipPath>
</defs>
</svg>
